# xmcd
#
# Track frame offsets: 
#        150
#        14726
#        26196
#        39842
#        51287
#        65142
#        78086
#        90506
#        103632
#        114814
#        128356
#        143700
#        155634
#        167956
#        179134
#        192804
#        207412
#        218897
#        229935
#        243749
#        256762
#        271936
#        285074
#
# Disc length: 3992 seconds
#
# Revision: 2
# Processed by: cddbd v1.5.2PL0 Copyright (c) Steve Scherf et al.
# Submitted via: ExactAudioCopy v1.0b3
#
DISCID=430f9617
DTITLE=Glenn Miller - The Complete Studio Recordings - CD 2
DYEAR=2002
DGENRE=Jazz
TTITLE0=Blue evening
TTITLE1=The lamp is low
TTITLE2=Rendezvous time in Paree
TTITLE3=We can live on love (We havn't got a pot to cook in)
TTITLE4=Cinderell (Stay in my arms)
TTITLE5=Moon love
TTITLE6=Guess I'll go back home (This summer)
TTITLE7=I'm sorry for myself
TTITLE8=Back to back
TTITLE9=Slip horn jive
TTITLE10=Oh! You crazy moon
TTITLE11=Ain't cha comin' out
TTITLE12=The day we meet again
TTITLE13=Wanna hat with cherries
TTITLE14=Sold american
TTITLE15=Pagan love song
TTITLE16=Ding-dong, the witch is dead
TTITLE17=Over the rainbow
TTITLE18=The little man who wasn't there
TTITLE19=The man with the mandolin
TTITLE20=Starlit hour
TTITLE21=Blue orchid
TTITLE22=Glen Island special
EXTD=YEAR: 2002
EXTT0=
EXTT1=
EXTT2=
EXTT3=
EXTT4=
EXTT5=
EXTT6=
EXTT7=
EXTT8=
EXTT9=
EXTT10=
EXTT11=
EXTT12=
EXTT13=
EXTT14=
EXTT15=
EXTT16=
EXTT17=
EXTT18=
EXTT19=
EXTT20=
EXTT21=
EXTT22=
PLAYORDER=
